<svg width="33" height="33" viewBox="0 0 33 33" fill="none" xmlns="http://www.w3.org/2000/svg">
<path d="M28.0101 28.3261C34.6633 21.8502 34.6633 11.132 28.0101 4.65613C21.6269 -1.55204 11.3744 -1.55204 4.99114 4.65613C-1.66428 11.132 -1.66315 21.8491 4.99114 28.3238C11.3744 34.5342 21.6269 34.5342 28.0101 28.3261ZM15.7015 26.3541L9.8497 11.2723C9.53096 10.4159 10.623 9.71335 11.2717 10.3621L16.2773 15.3676C16.3368 15.4272 16.4176 15.4606 16.5018 15.4606C16.5859 15.4606 16.6667 15.4272 16.7262 15.3676L21.7307 10.3632C22.3772 9.71671 23.463 10.412 23.1471 11.2667L17.2997 26.3541C17.2395 26.5176 17.1307 26.6587 16.9878 26.7584C16.8449 26.858 16.6748 26.9115 16.5006 26.9115C16.3264 26.9115 16.1564 26.858 16.0135 26.7584C15.8706 26.6587 15.7617 26.5176 15.7015 26.3541Z" fill="#62B62C"/>
</svg>
